<svg width="63" height="69" viewBox="0 0 63 69" fill="none" xmlns="http://www.w3.org/2000/svg">
<path d="M41.439 15.416C40.578 14.4979 39.378 13.3334 37.731 12.471C36.137 11.6364 34.545 11.2096 32.405 11.0423C32.046 11.0142 31.684 11 31.33 11C26.902 11 23.828 13.1446 22.029 14.9437C20.017 16.9549 17.692 20.3549 18.034 25.1315C18.287 28.6591 20.308 31.432 21.931 33.6601L22 33.7555C22.29 34.1527 22.591 34.5417 22.91 34.9545C23.914 36.2508 24.952 37.5912 25.697 39.2939L25.783 39.4888C26.088 40.1799 26.466 41.0399 26.421 41.4825C26.388 41.7989 26.251 41.9535 26.093 42.1325C25.874 42.3811 25.601 42.6905 25.776 43.3533C26.004 44.2135 27.088 44.2135 28.343 44.2135H34.885C35.92 44.2135 36.991 44.2135 37.219 43.353C37.391 42.7055 37.092 42.3425 36.852 42.051C36.716 41.8861 36.599 41.7437 36.573 41.565C36.451 40.7008 37.384 38.7384 38.303 37.2808C38.884 36.3608 39.506 35.5618 40.109 34.7893C40.387 34.4322 40.651 34.0948 40.9 33.7574C41.032 33.5787 41.165 33.4001 41.299 33.2219C42.969 30.9829 44.696 28.6681 44.961 25.2264C45.336 20.3585 42.915 16.9904 41.439 15.416ZM38.948 32.0183C38.828 32.1762 38.709 32.3337 38.59 32.491C38.382 32.7668 38.174 33.0406 37.965 33.3123C36.09 35.7624 34.318 38.0798 33.903 41.6043H29.088C28.571 37.8779 26.765 35.5013 24.854 32.9885C24.706 32.7929 24.556 32.5959 24.406 32.3976L24.151 32.0605C22.663 30.0972 20.976 27.8721 20.734 25.272C20.351 21.1653 22.252 18.3649 23.913 16.7389C26.035 14.661 28.597 13.6074 31.525 13.6074C31.86 13.6074 32.203 13.6216 32.546 13.6497C37.714 14.072 41.89 18.287 42.261 23.4543C42.535 27.2897 40.711 29.6935 38.947 32.0183H38.948Z" fill="black"/>
<path d="M35.432 48.4802C35.011 48.3912 34.404 48.3514 33.462 48.3514C32.974 48.3514 32.445 48.3621 31.933 48.3725C31.426 48.3826 30.903 48.3933 30.426 48.3933C30.216 48.3933 29.998 48.3894 29.768 48.3855C29.531 48.3815 29.287 48.3774 29.046 48.3774C28.191 48.3774 26.412 48.3774 26.327 49.4984C26.303 49.8057 26.403 50.0638 26.622 50.2651C27.111 50.7138 28.095 50.7743 28.992 50.7743C29.409 50.7743 29.847 50.7588 30.271 50.7438C30.688 50.7289 31.083 50.7152 31.451 50.7152C31.716 50.7152 32.016 50.7161 32.333 50.7169C33.021 50.7188 33.785 50.7211 34.436 50.7152C35.542 50.7051 36.588 50.6957 36.668 49.691C36.744 48.7583 35.985 48.5976 35.432 48.4802Z" fill="black"/>
</svg>
