<svg width="50" height="57" viewBox="0 0 50 57" fill="none" xmlns="http://www.w3.org/2000/svg">
<path d="M34.869 28.6641C34.517 28.6641 34.149 28.5517 33.797 28.4714C33.084 28.3115 32.383 28.1023 31.7 27.8451C30.957 27.5741 30.14 27.5882 29.407 27.8846C28.674 28.1811 28.077 28.739 27.729 29.4509L27.377 30.1896C25.822 29.3051 24.386 28.2259 23.102 26.978C21.858 25.6907 20.782 24.25 19.9 22.6904L20.637 22.3532C21.347 22.0046 21.903 21.405 22.198 20.6698C22.494 19.9346 22.508 19.1157 22.238 18.3707C21.983 17.6787 21.775 16.9706 21.613 16.2511C21.533 15.8978 21.469 15.5284 21.421 15.1751C21.227 14.044 20.636 13.0197 19.756 12.2867C18.875 11.5536 17.762 11.16 16.618 11.1766H11.799C11.122 11.1758 10.453 11.3184 9.83498 11.5951C9.21698 11.8718 8.664 12.2765 8.213 12.7825C7.753 13.3022 7.41 13.9158 7.208 14.581C7.006 15.2463 6.95 15.9475 7.044 16.6365C7.915 23.3201 10.959 29.5291 15.706 34.3005C20.463 39.0615 26.653 42.1151 33.317 42.9881C33.524 43.004 33.733 43.004 33.941 42.9881C35.121 42.9898 36.261 42.5553 37.143 41.7676C37.647 41.3151 38.051 40.7606 38.327 40.1407C38.603 39.5208 38.745 38.8494 38.744 38.1706V33.3531C38.735 32.2435 38.345 31.171 37.639 30.3166C36.933 29.4623 35.955 28.8786 34.869 28.6641ZM35.654 38.299C35.653 38.5231 35.606 38.7446 35.515 38.9493C35.424 39.1539 35.291 39.3372 35.126 39.4874C34.95 39.6477 34.741 39.7669 34.514 39.8363C34.287 39.9058 34.048 39.9237 33.813 39.8888C27.838 39.1062 22.286 36.3753 18.011 32.1166C13.732 27.825 10.986 22.2366 10.198 16.2189C10.164 15.9834 10.181 15.7431 10.251 15.5153C10.32 15.2876 10.439 15.0782 10.599 14.9022C10.75 14.7338 10.935 14.5995 11.142 14.5082C11.349 14.4168 11.573 14.3705 11.799 14.3722H16.602C16.972 14.3632 17.334 14.483 17.626 14.7114C17.918 14.9398 18.122 15.2625 18.203 15.6248C18.203 16.0584 18.347 16.508 18.443 16.9416C18.628 17.7828 18.875 18.6093 19.18 19.4145L16.938 20.4744C16.553 20.6518 16.254 20.9752 16.106 21.3736C15.946 21.7646 15.946 22.2031 16.106 22.5941C18.41 27.5444 22.377 31.5237 27.313 33.8348C27.703 33.9955 28.14 33.9955 28.53 33.8348C28.927 33.6865 29.249 33.3862 29.426 32.9998L30.435 30.7517C31.261 31.0538 32.106 31.3005 32.964 31.4903C33.381 31.5867 33.829 31.667 34.261 31.7312C34.622 31.8128 34.944 32.0174 35.172 32.3102C35.399 32.603 35.519 32.9658 35.51 33.337L35.654 38.299ZM26.208 11C25.84 11 25.456 11 25.087 11C24.663 11.0362 24.27 11.2401 23.995 11.5669C23.721 11.8936 23.586 12.3164 23.623 12.7423C23.659 13.1682 23.862 13.5623 24.188 13.8378C24.513 14.1134 24.935 14.2479 25.36 14.2117H26.208C28.756 14.2117 31.199 15.2268 33.001 17.0337C34.802 18.8406 35.814 21.2913 35.814 23.8466C35.814 24.1357 35.814 24.4086 35.814 24.6977C35.779 25.1213 35.912 25.5418 36.185 25.8669C36.458 26.192 36.849 26.3952 37.271 26.432H37.399C37.8 26.4336 38.187 26.2844 38.483 26.0139C38.779 25.7433 38.964 25.3711 39 24.9707C39 24.6013 39 24.2159 39 23.8466C39 20.4423 37.653 17.1771 35.254 14.7684C32.856 12.3596 29.602 11.0043 26.208 11ZM29.41 23.8466C29.41 24.2725 29.579 24.6809 29.879 24.9821C30.179 25.2833 30.586 25.4524 31.011 25.4524C31.436 25.4524 31.843 25.2833 32.143 24.9821C32.443 24.6809 32.612 24.2725 32.612 23.8466C32.612 22.143 31.937 20.5092 30.736 19.3046C29.535 18.1 27.907 17.4233 26.208 17.4233C25.784 17.4233 25.376 17.5925 25.076 17.8936C24.776 18.1948 24.607 18.6032 24.607 19.0291C24.607 19.455 24.776 19.8635 25.076 20.1646C25.376 20.4658 25.784 20.635 26.208 20.635C27.057 20.635 27.872 20.9733 28.472 21.5756C29.073 22.1779 29.41 22.9948 29.41 23.8466Z" fill="white"/>
</svg>
