<svg width="72" height="48" viewBox="0 0 72 48" fill="none" xmlns="http://www.w3.org/2000/svg">
<path d="M41.5606 10.3307C41.5644 10.277 41.5644 10.2232 41.5606 10.1695C41.5374 9.0564 41.0693 7.9965 40.2566 7.2171C39.4439 6.4377 38.3512 6.0007 37.213 6C36.0748 5.9993 34.9815 6.4348 34.1678 7.2132C33.354 7.9916 32.8844 9.0508 32.8598 10.1639C33.1946 12.2662 34.0738 12.9287 34.7575 14.4842L25.2421 14.3011L25.0568 23.5304C23.2536 22.843 21.9585 21.6074 20.4288 21.5787C20.3735 21.5752 20.318 21.5752 20.2627 21.5787C19.125 21.601 18.0416 22.0585 17.2447 22.853C16.4478 23.6475 16.001 24.7158 16 25.8288C15.999 26.9417 16.4439 28.0108 17.2393 28.8066C18.0348 29.6025 19.1174 30.0619 20.255 30.0862C22.5316 29.74 23.1565 28.7938 24.9622 28.1145L24.7705 37.5432L34.3275 37.7269C33.6425 36.1083 32.7333 35.4608 32.3927 33.3197C32.4173 32.2068 32.8867 31.1477 33.7003 30.3694C34.5139 29.591 35.6069 29.1555 36.745 29.1562C37.883 29.1568 38.9755 29.5936 39.7882 30.3729C40.6009 31.1521 41.069 32.2118 41.0922 33.3247C41.0954 33.3786 41.0954 33.4327 41.0922 33.4866C41.0634 34.924 39.8941 36.1551 39.1753 37.82L48.5329 38L49 14.7517L39.6769 14.5729C40.4028 12.9555 41.5324 11.7456 41.5606 10.3307Z" fill="black"/>
</svg>
